<mxfile host="app.diagrams.net" modified="2024-06-03T21:46:29.122Z" agent="Mozilla/5.0 (X11; Linux x86_64; rv:126.0) Gecko/20100101 Firefox/126.0" etag="1aFezCy5kZziG0vFcZG5" version="24.4.13" type="device">
  <diagram id="C5RBs43oDa-KdzZeNtuy" name="Page-1">
    <mxGraphModel dx="823" dy="517" grid="1" gridSize="10" guides="1" tooltips="1" connect="1" arrows="1" fold="1" page="1" pageScale="1" pageWidth="827" pageHeight="1169" math="0" shadow="0">
      <root>
        <mxCell id="WIyWlLk6GJQsqaUBKTNV-0" />
        <mxCell id="WIyWlLk6GJQsqaUBKTNV-1" parent="WIyWlLk6GJQsqaUBKTNV-0" />
        <mxCell id="9qAuwcQnLAJDY2GREE65-16" style="edgeStyle=orthogonalEdgeStyle;rounded=0;orthogonalLoop=1;jettySize=auto;html=1;startArrow=classic;startFill=1;" edge="1" parent="WIyWlLk6GJQsqaUBKTNV-1" source="9qAuwcQnLAJDY2GREE65-4" target="9qAuwcQnLAJDY2GREE65-9">
          <mxGeometry relative="1" as="geometry" />
        </mxCell>
        <mxCell id="9qAuwcQnLAJDY2GREE65-4" value="&lt;div&gt;PostgreSQL&lt;/div&gt;&amp;nbsp;baza podataka" style="image;aspect=fixed;perimeter=ellipsePerimeter;html=1;align=center;shadow=0;dashed=0;spacingTop=3;image=img/lib/active_directory/database.svg;" vertex="1" parent="WIyWlLk6GJQsqaUBKTNV-1">
          <mxGeometry x="760" y="175.5" width="46.62" height="34.5" as="geometry" />
        </mxCell>
        <mxCell id="9qAuwcQnLAJDY2GREE65-5" value="Centralni poslu탑itelj" style="image;aspect=fixed;perimeter=ellipsePerimeter;html=1;align=center;shadow=0;dashed=0;spacingTop=3;image=img/lib/active_directory/generic_server.svg;" vertex="1" parent="WIyWlLk6GJQsqaUBKTNV-1">
          <mxGeometry x="530" y="170" width="28.000000000000004" height="50" as="geometry" />
        </mxCell>
        <mxCell id="9qAuwcQnLAJDY2GREE65-21" style="edgeStyle=orthogonalEdgeStyle;rounded=0;orthogonalLoop=1;jettySize=auto;html=1;entryX=0.5;entryY=1;entryDx=0;entryDy=0;" edge="1" parent="WIyWlLk6GJQsqaUBKTNV-1" source="9qAuwcQnLAJDY2GREE65-6" target="9qAuwcQnLAJDY2GREE65-10">
          <mxGeometry relative="1" as="geometry" />
        </mxCell>
        <mxCell id="9qAuwcQnLAJDY2GREE65-6" value="Poslu탑itelj 1" style="image;aspect=fixed;perimeter=ellipsePerimeter;html=1;align=center;shadow=0;dashed=0;spacingTop=3;image=img/lib/active_directory/generic_server.svg;" vertex="1" parent="WIyWlLk6GJQsqaUBKTNV-1">
          <mxGeometry x="450" y="370" width="28.000000000000004" height="50" as="geometry" />
        </mxCell>
        <mxCell id="9qAuwcQnLAJDY2GREE65-22" style="edgeStyle=orthogonalEdgeStyle;rounded=0;orthogonalLoop=1;jettySize=auto;html=1;entryX=0.5;entryY=1;entryDx=0;entryDy=0;" edge="1" parent="WIyWlLk6GJQsqaUBKTNV-1" source="9qAuwcQnLAJDY2GREE65-7" target="9qAuwcQnLAJDY2GREE65-10">
          <mxGeometry relative="1" as="geometry" />
        </mxCell>
        <mxCell id="9qAuwcQnLAJDY2GREE65-7" value="Poslu탑itelj 2" style="image;aspect=fixed;perimeter=ellipsePerimeter;html=1;align=center;shadow=0;dashed=0;spacingTop=3;image=img/lib/active_directory/generic_server.svg;" vertex="1" parent="WIyWlLk6GJQsqaUBKTNV-1">
          <mxGeometry x="530" y="450" width="28.000000000000004" height="50" as="geometry" />
        </mxCell>
        <mxCell id="9qAuwcQnLAJDY2GREE65-23" style="edgeStyle=orthogonalEdgeStyle;rounded=0;orthogonalLoop=1;jettySize=auto;html=1;entryX=0.5;entryY=1;entryDx=0;entryDy=0;" edge="1" parent="WIyWlLk6GJQsqaUBKTNV-1" source="9qAuwcQnLAJDY2GREE65-8" target="9qAuwcQnLAJDY2GREE65-10">
          <mxGeometry relative="1" as="geometry" />
        </mxCell>
        <mxCell id="9qAuwcQnLAJDY2GREE65-8" value="Poslu탑itelj 3" style="image;aspect=fixed;perimeter=ellipsePerimeter;html=1;align=center;shadow=0;dashed=0;spacingTop=3;image=img/lib/active_directory/generic_server.svg;" vertex="1" parent="WIyWlLk6GJQsqaUBKTNV-1">
          <mxGeometry x="610" y="370" width="28.000000000000004" height="50" as="geometry" />
        </mxCell>
        <mxCell id="9qAuwcQnLAJDY2GREE65-9" value="Tvrdi disk" style="image;aspect=fixed;perimeter=ellipsePerimeter;html=1;align=center;shadow=0;dashed=0;spacingTop=3;image=img/lib/active_directory/hard_disk.svg;" vertex="1" parent="WIyWlLk6GJQsqaUBKTNV-1">
          <mxGeometry x="760" y="80" width="50" height="27" as="geometry" />
        </mxCell>
        <mxCell id="9qAuwcQnLAJDY2GREE65-24" style="edgeStyle=orthogonalEdgeStyle;rounded=0;orthogonalLoop=1;jettySize=auto;html=1;entryX=0.5;entryY=1;entryDx=0;entryDy=0;startArrow=classic;startFill=1;" edge="1" parent="WIyWlLk6GJQsqaUBKTNV-1" source="9qAuwcQnLAJDY2GREE65-10" target="9qAuwcQnLAJDY2GREE65-5">
          <mxGeometry relative="1" as="geometry" />
        </mxCell>
        <mxCell id="9qAuwcQnLAJDY2GREE65-10" value="Internet" style="image;aspect=fixed;perimeter=ellipsePerimeter;html=1;align=center;shadow=0;dashed=0;spacingTop=3;image=img/lib/active_directory/internet_cloud.svg;" vertex="1" parent="WIyWlLk6GJQsqaUBKTNV-1">
          <mxGeometry x="520" y="300" width="50" height="31.5" as="geometry" />
        </mxCell>
        <mxCell id="9qAuwcQnLAJDY2GREE65-13" value="" style="edgeStyle=orthogonalEdgeStyle;rounded=0;orthogonalLoop=1;jettySize=auto;html=1;" edge="1" parent="WIyWlLk6GJQsqaUBKTNV-1" source="9qAuwcQnLAJDY2GREE65-12" target="9qAuwcQnLAJDY2GREE65-5">
          <mxGeometry relative="1" as="geometry" />
        </mxCell>
        <mxCell id="9qAuwcQnLAJDY2GREE65-12" value="Web stranica" style="image;aspect=fixed;perimeter=ellipsePerimeter;html=1;align=center;shadow=0;dashed=0;spacingTop=3;image=img/lib/active_directory/internet_globe.svg;" vertex="1" parent="WIyWlLk6GJQsqaUBKTNV-1">
          <mxGeometry x="400" y="170" width="50" height="50" as="geometry" />
        </mxCell>
        <mxCell id="9qAuwcQnLAJDY2GREE65-18" style="edgeStyle=orthogonalEdgeStyle;rounded=0;orthogonalLoop=1;jettySize=auto;html=1;entryX=0;entryY=0.5;entryDx=0;entryDy=0;startArrow=classic;startFill=1;strokeColor=default;endArrow=classic;endFill=1;" edge="1" parent="WIyWlLk6GJQsqaUBKTNV-1" source="9qAuwcQnLAJDY2GREE65-17" target="9qAuwcQnLAJDY2GREE65-4">
          <mxGeometry relative="1" as="geometry" />
        </mxCell>
        <mxCell id="9qAuwcQnLAJDY2GREE65-19" style="edgeStyle=orthogonalEdgeStyle;rounded=0;orthogonalLoop=1;jettySize=auto;html=1;entryX=1;entryY=0.5;entryDx=0;entryDy=0;startArrow=classic;startFill=1;" edge="1" parent="WIyWlLk6GJQsqaUBKTNV-1" source="9qAuwcQnLAJDY2GREE65-17" target="9qAuwcQnLAJDY2GREE65-5">
          <mxGeometry relative="1" as="geometry" />
        </mxCell>
        <mxCell id="9qAuwcQnLAJDY2GREE65-17" value="API" style="aspect=fixed;sketch=0;html=1;dashed=0;whitespace=wrap;verticalLabelPosition=bottom;verticalAlign=top;fillColor=#2875E2;strokeColor=#ffffff;points=[[0.005,0.63,0],[0.1,0.2,0],[0.9,0.2,0],[0.5,0,0],[0.995,0.63,0],[0.72,0.99,0],[0.5,1,0],[0.28,0.99,0]];shape=mxgraph.kubernetes.icon2;prIcon=api" vertex="1" parent="WIyWlLk6GJQsqaUBKTNV-1">
          <mxGeometry x="628" y="170" width="50" height="48" as="geometry" />
        </mxCell>
        <mxCell id="9qAuwcQnLAJDY2GREE65-26" style="edgeStyle=orthogonalEdgeStyle;rounded=0;orthogonalLoop=1;jettySize=auto;html=1;entryX=0;entryY=0.5;entryDx=0;entryDy=0;startArrow=classic;startFill=1;endArrow=none;endFill=0;" edge="1" parent="WIyWlLk6GJQsqaUBKTNV-1" source="9qAuwcQnLAJDY2GREE65-25" target="9qAuwcQnLAJDY2GREE65-10">
          <mxGeometry relative="1" as="geometry" />
        </mxCell>
        <mxCell id="9qAuwcQnLAJDY2GREE65-25" value="Administrator" style="image;aspect=fixed;perimeter=ellipsePerimeter;html=1;align=center;shadow=0;dashed=0;spacingTop=3;image=img/lib/active_directory/laptop_client.svg;" vertex="1" parent="WIyWlLk6GJQsqaUBKTNV-1">
          <mxGeometry x="380" y="290.75" width="45" height="50" as="geometry" />
        </mxCell>
      </root>
    </mxGraphModel>
  </diagram>
</mxfile>
